<?xml version="1.0" encoding="iso-8859-1"?>
<!-- Generator: Adobe Illustrator 19.0.0, SVG Export Plug-In . SVG Version: 6.00 Build 0)  -->
<svg version="1.1" id="Layer_1" xmlns="http://www.w3.org/2000/svg" xmlns:xlink="http://www.w3.org/1999/xlink" x="0px" y="0px"
	 viewBox="0 0 512 512" style="enable-background:new 0 0 512 512;" xml:space="preserve">
<g>
	<g>
		<path d="M387.583,401.509l-26.813-26.815c-0.003-0.002-0.005-0.006-0.007-0.008l-29-29c-0.002-0.002-0.004-0.003-0.006-0.005
			l-47.407-47.407c-0.002-0.002-0.003-0.004-0.005-0.006l-78.769-78.769c-0.002-0.002-0.005-0.004-0.007-0.006l-95.076-95.076
			c-1.967-1.967-4.677-3.02-7.453-2.871c-2.779,0.139-5.368,1.445-7.13,3.598C65.808,161.927,49.231,208.399,49.231,256
			c0,114.013,92.757,206.769,206.769,206.769c47.601,0,94.073-16.577,130.856-46.678c2.153-1.761,3.46-4.352,3.598-7.13
			C390.593,406.183,389.549,403.477,387.583,401.509z M253.61,295.385h-66.656c-5.438,0-9.846,4.409-9.846,9.846v59.077
			c0,2.696-1.069,5.214-3.01,7.086c-1.939,1.872-4.498,2.854-7.203,2.753c0-0.001-0.001-0.001-0.001-0.001
			c-5.226-0.185-9.477-4.811-9.477-10.311v-58.604h-0.001v-38.728c0-5.437-4.408-9.846-9.846-9.846
			c-5.438,0-9.846,4.409-9.846,9.846v28.882h-0.492c-5.023,0-9.108-4.085-9.108-9.108v-32.862c0-9.434,7.674-17.108,17.108-17.108
			h49.303L253.61,295.385z M256,443.077c-103.155,0-187.077-83.922-187.077-187.077c0-39.416,12.561-77.974,35.565-109.737
			l70.353,70.353h-29.61c-20.291,0-36.8,16.509-36.8,36.8v32.862c0,15.881,12.92,28.8,28.8,28.8h0.492v48.759
			c0,16.251,12.506,29.424,28.471,29.991c0.363,0.013,0.726,0.02,1.087,0.02c7.693,0,14.933-2.918,20.492-8.282
			c5.822-5.618,9.028-13.167,9.028-21.257v-49.231h76.503l41.651,41.651v7.108c0,16.25,12.506,29.422,28.469,29.99
			c0.35,0.013,0.699,0.02,1.048,0.02c2.294,0,4.575-0.279,6.796-0.803l14.47,14.47C333.973,430.516,295.415,443.077,256,443.077z"/>
	</g>
</g>
<g>
	<g>
		<path d="M256,49.231c-47.6,0-94.072,16.577-130.857,46.678c-2.153,1.761-3.46,4.352-3.599,7.13
			c-0.139,2.779,0.905,5.485,2.872,7.453l122.928,122.928c0.002,0.001,0.003,0.003,0.004,0.005l109.874,109.874
			c0.003,0.003,0.006,0.005,0.009,0.008l44.277,44.277c1.851,1.851,4.358,2.884,6.962,2.884c0.162,0,0.327-0.004,0.49-0.013
			c2.778-0.139,5.368-1.445,7.13-3.598c30.102-36.783,46.679-83.255,46.679-130.856C462.769,141.987,370.013,49.231,256,49.231z
			 M407.512,365.737l-33.481-33.481v-36.875c0-5.437-4.409-9.846-9.846-9.846c-5.437,0-9.846,4.409-9.846,9.846v17.183
			l-76.256-76.257h36.872c5.437,0,9.846-4.409,9.846-9.846v-85.973c5.882,3.411,9.846,9.776,9.846,17.05v9.846
			c0,5.437,4.409,9.846,9.846,9.846h39.385v19.692h-19.692c-5.437,0-9.846,4.409-9.846,9.846v29.541
			c0,5.437,4.409,9.846,9.846,9.846c5.437,0,9.846-4.409,9.846-9.846v-19.695h19.692c5.437,0,9.846-4.409,9.846-9.846v-39.385
			c0-5.437-4.409-9.846-9.846-9.846h-39.385c0-21.717-17.668-39.385-39.385-39.385c-5.437,0-9.846,4.409-9.846,9.846v88.615H258.39
			L146.263,104.488C178.027,81.484,216.585,68.923,256,68.923c103.155,0,187.077,83.922,187.077,187.077
			C443.077,295.415,430.516,333.973,407.512,365.737z"/>
	</g>
</g>
<g>
	<g>
		<path d="M437.02,74.98C388.667,26.629,324.38,0,256,0C187.619,0,123.333,26.629,74.98,74.98C26.628,123.332,0,187.62,0,256
			s26.629,132.667,74.98,181.02C123.332,485.372,187.619,512,256,512c68.38,0,132.667-26.629,181.02-74.98
			C485.372,388.668,512,324.38,512,256S485.371,123.333,437.02,74.98z M256,492.308C125.7,492.308,19.692,386.301,19.692,256
			S125.7,19.692,256,19.692c130.301,0,236.308,106.007,236.308,236.308S386.301,492.308,256,492.308z"/>
	</g>
</g>
<g>
	<g>
		<path d="M364.194,256h-0.01c-5.437,0-9.841,4.409-9.841,9.846c0,5.437,4.413,9.846,9.851,9.846s9.846-4.409,9.846-9.846
			C374.041,260.409,369.633,256,364.194,256z"/>
	</g>
</g>
<g>
</g>
<g>
</g>
<g>
</g>
<g>
</g>
<g>
</g>
<g>
</g>
<g>
</g>
<g>
</g>
<g>
</g>
<g>
</g>
<g>
</g>
<g>
</g>
<g>
</g>
<g>
</g>
<g>
</g>
</svg>
