<?xml version="1.0" encoding="iso-8859-1"?>
<!-- Generator: Adobe Illustrator 19.0.0, SVG Export Plug-In . SVG Version: 6.00 Build 0)  -->
<svg version="1.1" id="Capa_1" xmlns="http://www.w3.org/2000/svg" xmlns:xlink="http://www.w3.org/1999/xlink" x="0px" y="0px"
	 viewBox="0 0 346.624 346.624" style="enable-background:new 0 0 346.624 346.624;" xml:space="preserve">
<g>
	<g>
		<path d="M340.992,14.08H5.12C2.048,14.08,0,16.128,0,19.2v42.496c0,3.072,2.048,5.12,5.12,5.12h14.848v260.608
			c0,3.072,2.048,5.12,5.12,5.12h296.448c3.072,0,5.12-2.048,5.12-5.12V66.816h14.848c3.072,0,5.12-2.048,5.12-5.12V18.688
			C346.112,16.128,344.064,14.08,340.992,14.08z M65.024,322.304H30.208v-27.136h34.816V322.304z M65.024,284.928H30.208V257.28
			h34.816V284.928z M65.024,247.552H30.208v-27.648h34.816V247.552z M65.024,209.664H30.208v-27.648h34.816V209.664z
			 M65.024,171.776H30.208v-27.648h34.816V171.776z M65.024,133.888H30.208V106.24h34.816V133.888z M30.208,96V66.816h64V96H30.208z
			 M233.472,322.304H123.904c-1.536-1.024-18.944-16.384-20.992-36.864c-1.024-10.24,2.56-20.48,10.24-30.208
			c11.776-13.824,17.92-26.112,18.944-36.864c13.312,11.776,28.672,29.184,26.624,43.52c0,0.512,0,1.024,0,1.024
			c-0.512,2.56,1.536,5.12,4.608,5.632c2.56,0.512,5.12-1.536,5.632-4.096c0-0.512,0-1.024,0-1.536
			c1.024-5.12,6.656-26.112,38.4-34.304c-4.608,10.24-8.704,27.136,4.096,40.448c8.704,9.216,16.896,13.312,24.576,12.8
			C232.96,293.12,229.888,308.48,233.472,322.304z M271.36,322.304h-27.136c-6.144-20.48,6.656-48.128,6.656-48.64
			c1.024-2.56,0-5.12-2.048-6.656c-2.56-1.536-5.12-0.512-6.656,1.536c0,0-2.56,3.584-6.656,3.584
			c-4.608,0.512-10.24-3.072-16.384-9.728c-13.312-14.848,2.048-37.376,2.56-37.888c1.024-1.536,1.024-4.096,0-5.632
			c-1.024-1.536-3.072-2.56-5.12-2.56c-28.672,3.584-43.008,16.384-50.176,27.648c-9.216-20.992-34.304-39.936-40.96-45.056
			c-1.024-1.024-2.048-1.536-2.56-1.536c-2.56-1.024-5.12-0.512-6.656,2.048s-0.512,5.12,1.536,6.656
			c0.512,0.512,1.024,0.512,1.024,1.024c1.024,1.024,2.56,2.56,3.072,6.144c1.024,4.608,0,15.36-16.384,34.816
			c-9.728,11.776-13.824,24.064-12.8,37.376c1.536,15.36,10.24,28.16,16.384,35.84H75.264V106.752H271.36V322.304z M104.448,96
			V66.816h65.536V96H104.448z M180.224,96V66.816h65.536V96H180.224z M316.416,322.304H281.6v-27.136h34.816V322.304z
			 M316.416,284.928H281.6V257.28h34.816V284.928z M316.416,247.552H281.6v-27.648h34.816V247.552z M316.416,209.664H281.6v-27.648
			h34.816V209.664z M316.416,171.776H281.6v-27.648h34.816V171.776z M316.416,133.888H281.6V106.24h34.816V133.888z M316.416,96.512
			H256V66.816h60.416V96.512z M336.384,56.576h-0.512h-14.848H25.088H10.24V23.808h326.144V56.576z"/>
	</g>
</g>
<g>
</g>
<g>
</g>
<g>
</g>
<g>
</g>
<g>
</g>
<g>
</g>
<g>
</g>
<g>
</g>
<g>
</g>
<g>
</g>
<g>
</g>
<g>
</g>
<g>
</g>
<g>
</g>
<g>
</g>
</svg>
