<?xml version="1.0" encoding="iso-8859-1"?>
<!-- Generator: Adobe Illustrator 19.0.0, SVG Export Plug-In . SVG Version: 6.00 Build 0)  -->
<svg version="1.1" id="Layer_1" xmlns="http://www.w3.org/2000/svg" xmlns:xlink="http://www.w3.org/1999/xlink" x="0px" y="0px"
	 viewBox="0 0 512 512" style="enable-background:new 0 0 512 512;" xml:space="preserve">
<g transform="translate(1 1)">
	<g>
		<g>
			<path d="M455.695,462.495c-4.491-5.389-11.677-6.288-17.965-4.491c-5.389,1.797-11.677,1.797-17.067,0l-123.821-42.212
				c3.65-3.391,6.303-7.649,7.947-12.581l26.947-79.046c7.186-23.354-5.389-48.505-28.744-56.589l-34.133-11.677l8.084-25.151
				l67.368,22.456c12.575,4.491,26.947-0.898,33.235-12.575c3.593-7.186,3.593-15.27,0.898-22.456
				c-2.695-7.186-8.982-12.575-16.168-15.27l-51.2-17.067l7.186-21.558c6.288-21.558-4.491-44.014-26.049-51.2l-17.067-5.389
				c-21.558-6.288-44.014,4.491-51.2,26.049l-18.563,54.141L95.814,151.471l2.379-6.955c1.797-5.389-0.898-9.881-5.389-11.677
				c-5.389-1.797-9.881,0.898-11.677,5.389l-2.569,7.509l-17.193-5.713c-5.389-1.796-9.881,0.898-11.677,5.39
				c-1.797,5.389,0.898,9.881,5.389,11.677l17.613,5.796l-3.241,9.474c-1.797,5.389,0.898,9.881,5.389,11.677
				c0.898,0.898,1.797,0.898,2.695,0.898c3.593,0,7.186-2.695,8.982-6.288l3.448-10.078l109.667,36.089l-8.02,23.393
				c-12.575,40.421,8.982,83.537,49.404,97.01l12.575,3.593c2.695,0.898,4.491,2.695,5.389,4.491
				c1.797,1.797,1.797,4.491,0.898,6.288l-15.27,44.014c-1.557,4.67-1.908,9.489-1.24,14.113l-138.887-47.348
				c-8.982-2.695-19.761,2.695-22.456,11.677l-5.389,17.067c-1.797,4.491-0.898,8.982,0.898,13.474
				c2.695,4.491,6.288,7.186,10.779,8.982l316.182,106.891c4.491,1.796,9.881,2.695,14.372,2.695c6.288,0,13.474-1.797,18.863-3.593
				c10.779-5.389,18.863-14.372,22.456-26.049C461.983,474.172,460.186,466.986,455.695,462.495z M241.014,139.126
				c3.593-8.982,12.575-16.168,21.558-16.168c1.797,0,3.593,0,8.084,0l17.067,5.389c11.677,4.491,17.965,17.067,14.372,28.744
				l-9.881,29.642c0,2.695,0,5.389,0.898,7.186c0.898,1.796,2.695,3.593,5.39,4.491l59.284,19.761
				c2.695,0.898,4.491,2.695,5.389,5.389c1.797,2.695,0.898,5.389,0,8.084c-1.797,3.593-7.186,5.389-11.677,3.593l-75.453-25.151
				c-1.214,0-2.424,0.004-3.557,0.087l-3.624-1.204c-1.466-2.337-1.949-5.251-0.903-7.865l8.084-26.049
				c1.796-5.389-0.898-9.881-5.389-11.677c-5.389-1.797-9.881,0.898-11.677,5.389l-8.084,26.049
				c-0.805,2.576-1.229,5.18-1.309,7.747l-26.439-8.785L241.014,139.126z M248.2,307.098c-31.439-9.881-47.607-44.014-37.726-74.554
				l7.177-21.954l41.594,13.687c0.621,0.507,1.27,0.986,1.944,1.437l-11.193,32.878c-1.797,5.389,0.898,9.881,5.389,11.677
				l43.116,14.372c14.372,4.491,21.558,19.761,17.067,34.133l-26.049,78.147c-1.797,3.593-3.593,6.288-7.186,8.084
				c-3.593,1.796-7.186,1.796-10.779,0.898c-7.186-2.695-11.677-9.881-8.982-17.067l15.27-44.014
				c1.796-7.186,1.796-14.372-1.797-20.66c-2.695-6.288-8.084-10.779-15.27-13.474L248.2,307.098z M430.544,489.442
				c-6.288,3.593-13.474,3.593-20.66,1.797L93.702,384.347l5.389-17.067l316.182,106.891c9.881,3.593,19.761,2.695,28.744,0
				C441.323,480.46,436.832,485.849,430.544,489.442z"/>
			<path d="M309.281,106.789c29.642,0,53.895-24.253,53.895-53.895C363.176,23.253,338.923-1,309.281-1
				s-53.895,24.253-53.895,53.895C255.386,82.537,279.639,106.789,309.281,106.789z M309.281,16.965
				c19.761,0,35.93,16.168,35.93,35.93c0,19.761-16.168,35.93-35.93,35.93s-35.93-16.168-35.93-35.93
				C273.351,33.133,289.52,16.965,309.281,16.965z"/>
		</g>
	</g>
</g>
<g>
</g>
<g>
</g>
<g>
</g>
<g>
</g>
<g>
</g>
<g>
</g>
<g>
</g>
<g>
</g>
<g>
</g>
<g>
</g>
<g>
</g>
<g>
</g>
<g>
</g>
<g>
</g>
<g>
</g>
</svg>
